<?xml version="1.0" standalone="no"?>
<!DOCTYPE svg PUBLIC "-//W3C//DTD SVG 20010904//EN"
 "http://www.w3.org/TR/2001/REC-SVG-20010904/DTD/svg10.dtd">
<svg version="1.0" xmlns="http://www.w3.org/2000/svg"
 width="512.000000pt" height="512.000000pt" viewBox="0 0 512.000000 512.000000"
 preserveAspectRatio="xMidYMid meet">
<metadata>
Created by potrace 1.14, written by Peter Selinger 2001-2017
</metadata>
<g transform="translate(0.000000,512.000000) scale(0.100000,-0.100000)"
fill="#000000" stroke="none">
<path d="M3846 4574 c-23 -60 28 -257 81 -316 28 -31 -7 -22 -67 18 -67 44
-169 94 -191 94 -9 0 -33 7 -53 15 -20 9 -59 24 -86 35 l-49 19 5 -32 c35
-209 106 -304 263 -351 l43 -12 -63 -48 c-112 -84 -109 -83 -752 -301 -255
-87 -304 -97 -490 -98 -301 -2 -526 18 -982 85 -244 36 -303 42 -460 42 -141
1 -197 -3 -260 -18 -245 -56 -392 -158 -517 -359 -112 -180 -122 -211 -147
-482 -12 -129 -18 -255 -27 -569 -4 -156 -11 -246 -21 -285 -8 -31 -19 -72
-24 -91 -12 -49 -3 -268 15 -370 27 -150 69 -319 77 -314 29 18 61 242 61 429
0 175 -12 269 -44 354 -27 71 -26 121 6 291 32 177 50 365 43 464 -9 110 14
144 60 94 23 -26 40 -91 48 -188 3 -36 15 -113 27 -172 20 -100 20 -109 5
-147 -41 -101 -47 -385 -12 -508 17 -61 17 -62 -3 -95 -12 -18 -32 -44 -46
-57 -14 -14 -26 -30 -26 -36 0 -6 18 -39 40 -72 22 -34 49 -86 61 -114 26 -68
35 -194 20 -296 -26 -178 -17 -236 64 -423 27 -64 35 -93 30 -117 -5 -27 11
-113 21 -113 1 0 36 -7 76 -15 73 -16 194 -22 205 -11 11 11 -31 77 -86 134
-46 48 -54 63 -56 99 -1 24 -18 80 -38 125 -34 81 -35 85 -31 193 2 61 11 136
19 167 15 58 48 132 63 142 4 3 24 -19 42 -47 29 -44 35 -62 36 -113 2 -80 10
-101 55 -153 51 -58 83 -128 105 -231 13 -60 25 -91 41 -106 14 -13 27 -42 33
-74 6 -30 17 -62 26 -72 25 -27 118 -58 175 -58 51 0 109 22 109 41 0 14 -36
66 -72 105 -17 18 -34 51 -39 75 -6 24 -27 69 -48 99 -21 30 -55 88 -76 129
-33 64 -39 86 -47 175 -4 55 -15 127 -23 159 -19 75 -19 74 8 80 12 3 32 8 44
12 18 6 21 4 17 -13 -12 -43 97 -205 125 -188 15 10 13 89 -3 158 -14 56 -13
58 10 83 37 40 56 29 81 -44 21 -63 65 -121 90 -121 34 0 42 73 18 184 l-14
68 33 42 c42 50 93 147 107 201 5 22 12 45 14 51 2 8 31 4 91 -12 256 -69 521
-85 797 -50 77 9 140 16 142 14 2 -2 -9 -62 -25 -133 -15 -72 -31 -150 -34
-175 -5 -35 -21 -65 -75 -134 l-68 -89 10 -56 c17 -104 13 -252 -7 -291 -26
-51 -56 -132 -56 -152 0 -9 10 -24 23 -33 16 -11 22 -26 23 -53 0 -54 34 -114
75 -134 54 -28 235 -18 255 13 3 5 -8 33 -25 62 -16 29 -29 62 -29 73 1 11 -8
33 -20 49 -39 55 -47 112 -33 232 7 59 19 119 26 133 133 258 189 378 228 490
69 196 60 185 141 183 37 0 70 -3 73 -6 8 -8 101 -480 108 -551 6 -50 3 -70
-10 -96 -13 -26 -16 -48 -12 -94 7 -71 47 -214 84 -301 28 -65 31 -84 21 -132
l-7 -31 57 -10 c31 -5 98 -9 147 -8 l90 1 3 31 c3 33 -40 99 -131 202 -49 55
-53 72 -48 187 2 24 46 306 76 485 3 19 9 107 12 195 l6 160 50 80 c28 44 100
154 160 244 97 146 165 256 271 441 54 93 85 180 111 304 13 66 36 144 51 174
29 58 109 145 176 190 l42 27 200 -3 c134 -3 217 0 248 8 42 11 52 10 90 -8
80 -38 85 -37 126 5 77 81 101 114 112 150 6 21 17 47 25 57 40 52 -2 101
-227 269 -84 63 -169 132 -189 154 -43 46 -156 202 -188 259 -27 48 -110 102
-206 134 -66 22 -101 52 -134 114 l-20 39 -11 -29 c-8 -20 -9 -39 -2 -61 6
-18 7 -33 4 -33 -4 0 -29 16 -55 36 -50 36 -92 95 -146 202 -17 34 -33 62 -35
62 -2 0 -7 -7 -10 -16z"/>
</g>
</svg>
